<?xml version="1.0" encoding="UTF-8"?>
<svg width="51px" height="57px" viewBox="0 0 51 57" version="1.1" xmlns="http://www.w3.org/2000/svg" xmlns:xlink="http://www.w3.org/1999/xlink">
    <!-- Generator: Sketch 53.2 (72643) - https://sketchapp.com -->
    <title>Group 20</title>
    <desc>Created with Sketch.</desc>
    <defs>
        <polygon id="path-1" points="0 56.7975636 151.631429 56.7975636 151.631429 0.00023030303 0 0.00023030303"></polygon>
    </defs>
    <g id="Page-1" stroke="none" stroke-width="1" fill="none" fill-rule="evenodd">
        <g id="Landing" transform="translate(-192.000000, -42.000000)">
            <g id="Header" transform="translate(192.000000, 41.000000)">
                <g id="Group-21" transform="translate(0.000000, 1.000000)">
                    <g id="Group-20" transform="translate(0.333333, 0.000000)">
                        <mask id="mask-2" fill="white">
                            <use xlink:href="#path-1"></use>
                        </mask>
                        <g id="Clip-6"></g>
                        <path d="M15.1210857,34.1945879 L15.1205143,22.6028606 L40.2045143,8.01028485 L27.6045143,0.680890909 C26.0450857,-0.22650303 24.1239429,-0.22650303 22.5633714,0.680890909 L2.51994286,12.3405576 C0.961085714,13.2479515 -5.71428571e-05,14.9239818 -5.71428571e-05,16.7387697 L-5.71428571e-05,31.3998606 L-5.71428571e-05,40.0598303 C-5.71428571e-05,41.8734667 0.961085714,43.549497 2.51994286,44.4568909 L5.60051429,46.2492242 L20.7210857,37.4522242 L15.1210857,34.1945879 Z" id="Fill-18" fill="#FEFEFE" mask="url(#mask-2)"></path>
                        <path d="M50.1685143,25.3990848 L50.1685143,16.7385394 C50.1685143,14.924903 49.2073714,13.248297 47.6485143,12.3403273 L44.5679429,10.5491455 L29.4479429,19.3444182 L35.0479429,22.6026303 L35.0479429,34.1943576 L9.96394286,48.7869333 L22.5639429,56.116903 C24.1239429,57.024297 26.0450857,57.024297 27.6045143,56.116903 L47.6485143,44.4572364 C49.2073714,43.5492667 50.1685143,41.8732364 50.1685143,40.0590242 L50.1685143,25.3990848 Z" id="Fill-19" fill="#FEFEFE" mask="url(#mask-2)"></path>
                    </g>
                </g>
            </g>
        </g>
    </g>
</svg>